<?xml version="1.0" standalone="no"?>
<!DOCTYPE svg PUBLIC "-//W3C//DTD SVG 20010904//EN"
 "http://www.w3.org/TR/2001/REC-SVG-20010904/DTD/svg10.dtd">
<svg version="1.0" xmlns="http://www.w3.org/2000/svg"
 width="121.000000pt" height="640.000000pt" viewBox="0 0 1280.000000 640.000000"
 preserveAspectRatio="xMidYMid meet">
<metadata>
Created by potrace 1.15, written by Peter Selinger 2001-2017
</metadata>
<g transform="translate(0.000000,640.000000) scale(0.100000,-0.100000)"
fill="#000000" stroke="none">
<path d="M8866 4826 c-73 -31 -138 -93 -174 -166 -37 -75 -39 -199 -4 -275 29
-63 93 -129 157 -163 72 -37 188 -42 266 -13 78 30 141 88 180 167 28 55 32
76 32 137 -1 135 -70 248 -188 307 -74 37 -189 39 -269 6z m55 -128 l-18 -53
-56 -3 c-32 -2 -57 1 -57 5 0 11 69 77 95 91 11 6 28 12 37 12 16 0 16 -4 -1
-52z m182 36 c37 -19 75 -51 88 -76 9 -16 4 -18 -49 -18 l-59 0 -12 41 c-7 23
-15 47 -18 55 -7 18 11 18 50 -2z m-79 -206 c3 -15 -1 -29 -12 -40 -25 -25
-57 0 -48 36 8 34 51 36 60 4z m-181 -58 c4 -3 -1 -30 -11 -60 l-18 -53 -21
29 c-25 37 -43 88 -43 126 l0 30 43 -33 c23 -18 45 -35 50 -39z m391 28 c-10
-54 -23 -92 -43 -117 l-18 -24 -18 53 -18 54 39 33 c50 42 65 43 58 1z m-198
-175 c43 -32 32 -43 -43 -43 -81 0 -89 7 -47 41 20 16 41 29 46 29 5 0 25 -12
44 -27z"/>
<path d="M11632 4738 c18 -23 48 -60 65 -82 l33 -41 0 -292 0 -293 -239 0
-239 0 -83 64 -84 65 -5 -271 -5 -271 -67 95 c-130 183 -274 294 -460 356
-155 51 -258 65 -453 59 -206 -6 -294 -25 -443 -98 -173 -84 -287 -219 -307
-364 -4 -27 -24 -84 -45 -125 -134 -270 -145 -562 -31 -830 17 -40 31 -74 31
-76 0 -2 -16 -12 -35 -22 l-36 -18 49 -70 c174 -246 387 -370 724 -420 162
-24 387 -15 522 20 171 44 327 137 411 243 81 102 195 290 226 373 49 129 62
200 62 345 1 161 -18 260 -80 403 -34 80 -35 84 -17 97 11 7 46 34 78 59 l60
46 230 -2 231 -3 3 -744 2 -743 -66 -82 -67 -81 172 -3 c94 -1 247 -1 341 0
l170 3 -65 80 -64 80 -1 748 0 747 233 0 232 0 90 -69 90 -69 3 154 c1 86 1
222 0 304 l-3 149 -85 -64 -84 -65 -238 0 -238 0 0 294 0 295 52 63 c28 35 58
71 66 81 14 16 -2 17 -327 17 l-343 0 34 -42z m-1354 -963 c125 -30 193 -78
288 -205 l66 -88 151 65 c84 36 158 66 165 67 17 1 82 -105 121 -197 78 -189
81 -432 9 -626 l-21 -56 -14 59 c-20 89 -68 169 -144 240 -124 118 -221 163
-639 297 -140 45 -282 95 -315 111 -212 103 -189 269 46 332 71 19 208 20 287
1z m-4 -991 c75 -76 -17 -199 -112 -150 -38 20 -52 44 -52 89 0 77 108 117
164 61z"/>
<path d="M10145 3691 c-50 -23 -75 -65 -75 -125 0 -114 146 -171 231 -90 68
65 53 171 -31 214 -48 25 -74 25 -125 1z"/>
<path d="M1275 4749 c-241 -23 -472 -105 -671 -238 -110 -73 -169 -124 -263
-226 -209 -229 -321 -495 -337 -800 -12 -222 28 -414 131 -620 78 -158 138
-240 265 -365 197 -195 435 -319 728 -382 140 -30 427 -32 565 -5 198 40 410
129 569 239 76 52 238 193 238 206 0 4 -10 20 -23 35 l-22 28 -90 -45 c-188
-94 -350 -131 -570 -129 -341 1 -614 107 -843 327 -180 172 -276 362 -302 597
-32 289 77 571 306 789 297 281 742 391 1159 284 55 -14 109 -28 120 -30 18
-4 84 41 74 50 -22 20 -166 105 -236 140 -169 83 -338 129 -541 146 -130 11
-142 11 -257 -1z"/>
<path d="M6227 4467 l-238 -101 75 -38 75 -38 -100 -140 c-55 -77 -101 -140
-102 -140 -1 0 -27 9 -57 21 -201 77 -468 80 -676 9 -79 -27 -212 -100 -282
-153 -364 -280 -490 -796 -297 -1214 125 -270 371 -478 653 -549 52 -13 103
-24 113 -24 17 0 19 -9 19 -95 l0 -95 -75 0 -75 0 0 -95 0 -95 75 0 75 0 0
-85 0 -85 135 0 135 0 0 85 0 85 65 0 65 0 0 95 0 95 -64 0 -65 0 -3 90 -3 90
45 5 c99 14 245 56 334 98 127 60 206 116 302 211 45 45 79 75 77 69 -4 -10
86 -13 418 -15 l422 -3 167 -275 c92 -151 171 -275 176 -275 5 0 85 125 177
278 l169 277 419 0 c230 0 419 3 419 6 0 3 -92 158 -205 344 -113 185 -205
341 -205 345 0 4 92 160 205 345 113 186 205 341 205 344 0 3 -189 6 -419 6
l-419 0 -169 278 c-92 152 -172 277 -177 277 -5 0 -84 -124 -176 -275 l-167
-275 -421 -3 c-232 -1 -422 -4 -422 -7 0 -2 93 -156 206 -342 114 -186 206
-342 206 -348 0 -8 -344 -580 -356 -592 -1 -1 -60 40 -131 92 -72 52 -133 94
-136 95 -3 0 -30 -32 -59 -71 -322 -433 -991 -369 -1225 116 -36 75 -75 202
-75 244 0 8 258 11 837 11 l836 0 -6 98 c-15 236 -113 466 -270 629 l-60 63
89 146 c48 80 93 152 99 161 10 13 21 10 84 -22 40 -20 75 -34 78 -31 3 2 -9
98 -26 213 -37 245 -40 263 -49 262 -4 0 -114 -46 -245 -102z m-567 -652 c112
-30 199 -82 292 -175 72 -73 93 -102 131 -181 25 -52 48 -106 51 -121 l6 -28
-625 0 c-507 0 -625 2 -625 13 0 26 78 173 125 235 148 196 438 312 645 257z
m1405 -302 c-45 -78 -49 -80 -76 -36 -12 21 -29 48 -37 61 l-14 22 77 0 77 0
-27 -47z m860 -158 l122 -200 -122 -200 -122 -200 -185 -3 -186 -2 -118 192
c-65 106 -118 202 -118 213 0 11 53 107 118 213 l118 192 186 -2 185 -3 122
-200z m340 158 c-45 -78 -49 -80 -76 -36 -12 21 -29 48 -37 61 l-14 22 77 0
77 0 -27 -47z m-1200 -715 l27 -48 -77 0 -77 0 23 38 c51 84 51 84 64 70 7 -7
25 -34 40 -60z m1200 0 l27 -48 -77 0 -77 0 23 38 c51 84 51 84 64 70 7 -7 25
-34 40 -60z"/>
<path d="M2066 4135 c-27 -79 -53 -150 -57 -157 -6 -9 -53 -14 -175 -18 l-166
-5 43 -31 c24 -18 85 -63 136 -102 l91 -71 -49 -158 c-26 -86 -47 -158 -45
-160 1 -1 64 40 139 93 l136 95 137 -96 c75 -53 137 -95 139 -93 1 2 -20 75
-46 162 -27 88 -45 162 -41 165 5 3 66 49 136 101 l127 95 -165 5 c-91 3 -169
10 -174 15 -5 6 -30 73 -57 150 -26 77 -50 143 -54 147 -3 4 -28 -58 -55 -137z"/>
<path d="M3247 4105 c-457 -87 -795 -444 -847 -897 -21 -181 13 -367 100 -544
264 -535 957 -735 1483 -428 210 122 378 327 452 548 72 215 72 427 1 640
-107 318 -378 569 -716 662 -121 33 -349 42 -473 19z m499 -311 c145 -58 292
-183 368 -313 130 -223 136 -488 13 -716 -18 -33 -37 -60 -44 -60 -6 0 -118
119 -247 264 l-236 265 0 302 0 302 40 -9 c22 -5 70 -21 106 -35z m-456 -273
l0 -309 -227 -272 -227 -271 -18 23 c-35 44 -97 183 -113 253 -23 97 -21 250
4 347 45 173 158 329 314 433 63 42 209 105 245 105 l22 0 0 -309z m444 -899
c96 -107 116 -135 106 -146 -14 -18 -141 -72 -198 -84 l-42 -10 0 196 c0 108
4 192 8 187 5 -6 62 -70 126 -143z m-449 -230 c-12 -12 -219 64 -213 78 2 3
50 63 108 133 l105 126 3 -166 c1 -91 0 -168 -3 -171z"/>
<path d="M8840 3095 l0 -985 165 0 165 0 -2 983 -3 982 -162 3 -163 2 0 -985z"/>
</g>
</svg>
